<svg xmlns="http://www.w3.org/2000/svg" width="70.676" height="103.302" viewBox="0 0 70.676 103.302">
  <g id="Group_26" data-name="Group 26" transform="translate(-1444.999 163.538)">
    <path id="Path_14" data-name="Path 14" d="M1502.554-124.467l-8.041,3.189a.571.571,0,0,1-.478-.027l-1.87-.989a.573.573,0,0,1-.023-1l6.658-3.92a.571.571,0,0,1,.558-.013l3.252,1.722A.572.572,0,0,1,1502.554-124.467Z" fill="#9c6539"/>
    <g id="Group_20" data-name="Group 20">
      <path id="Path_15" data-name="Path 15" d="M1483.835-149.009l-2.486.221a18.476,18.476,0,0,0-1.989-4.558,14.989,14.989,0,0,0-3.094-3.618,13.573,13.573,0,0,0-4.17-2.4,15.151,15.151,0,0,0-5.221-.857,15.931,15.931,0,0,0-7.154,1.495,13.547,13.547,0,0,0-4.917,4.039,17.283,17.283,0,0,0-2.817,5.919,27.04,27.04,0,0,0-.912,7.082,31.989,31.989,0,0,0,1.16,9.018,15.736,15.736,0,0,0,3.232,5.532,12.916,12.916,0,0,0,5,3.347,18.3,18.3,0,0,0,6.518,1.107,17.318,17.318,0,0,0,5.608-.856,14.264,14.264,0,0,0,4.447-2.431,14.732,14.732,0,0,0,3.259-3.729,19.788,19.788,0,0,0,2.1-4.751l2.431,1.271a24.917,24.917,0,0,1-2.182,5.027,17.5,17.5,0,0,1-3.591,4.439,17.067,17.067,0,0,1-5.248,3.149,19.8,19.8,0,0,1-7.209,1.195,27.433,27.433,0,0,1-8.508-1.272,19.006,19.006,0,0,1-6.85-3.872,17.817,17.817,0,0,1-4.585-6.554c-1.1-2.636-1.657-7.042-1.657-10.62a25.94,25.94,0,0,1,1.657-9.708,18.341,18.341,0,0,1,4.585-6.8,18.942,18.942,0,0,1,6.933-4.011,27.529,27.529,0,0,1,8.7-1.327,19.159,19.159,0,0,1,4.337.469,20.016,20.016,0,0,1,3.618,1.188,14.722,14.722,0,0,1,2.818,1.63,11.03,11.03,0,0,1,1.933,1.8l1.547-4.143h2.707Z" fill="#9c6539"/>
    </g>
    <g id="Group_21" data-name="Group 21">
      <path id="Path_16" data-name="Path 16" d="M1512.55-131.556q.451,1.13,3.125,1.13v1.318h-12.426v-1.318h3.728q1.053,0,1.054-.753c-.025,0-.038-.025-.038-.076a.429.429,0,0,0-.018-.131.56.56,0,0,1-.019-.17l-2-5.083h-12.916l-1.844,4.782c-.026.126-.045.226-.057.3a1.111,1.111,0,0,0-.019.151q0,.979,1.657.979h2.523v1.318h-9.9v-1.356q2.86,0,3.313-1.054l10.393-25.568h3.314Zm-18.639-7.342h11.145l-5.61-14.272Z" fill="#9c6539"/>
    </g>
    <g id="Group_22" data-name="Group 22">
      <path id="Path_17" data-name="Path 17" d="M1479.126-114.924q-9.5,0-9.5,3.38v47.267h18.91a27.165,27.165,0,0,0,6.759-.771,12.031,12.031,0,0,0,5.177-2.756,14.466,14.466,0,0,0,3.55-5.326,30.9,30.9,0,0,0,1.883-8.559l3.594.514-2.054,20.939H1453.2v-2.572q7.616,0,7.616-3.379v-45.357q0-3.378-7.616-3.38V-117.5h25.926Z" fill="#9c6539"/>
    </g>
    <g id="Group_23" data-name="Group 23">
      <path id="Path_18" data-name="Path 18" d="M1495.566-118.631a32.084,32.084,0,0,1,7.826.913,16.2,16.2,0,0,1,6.261,3.01,14.428,14.428,0,0,1,4.139,5.452c1.008,2.235,1.513,6.665,1.513,9.95a19.721,19.721,0,0,1-1.274,7.23,14.568,14.568,0,0,1-3.847,5.589,17.8,17.8,0,0,1-6.42,3.6,28.612,28.612,0,0,1-8.994,1.277,32.1,32.1,0,0,1-7.694-.889,16.953,16.953,0,0,1-6.261-2.9,13.925,13.925,0,0,1-4.192-5.246,18.4,18.4,0,0,1-1.539-7.939,33.87,33.87,0,0,1,1.194-9.219,14.491,14.491,0,0,1,3.714-5.794,17.234,17.234,0,0,1,6.367-3.718A28.449,28.449,0,0,1,1495.566-118.631Zm.265,2.734a20.486,20.486,0,0,0-6.925,1.026,12.3,12.3,0,0,0-4.643,2.852,10.925,10.925,0,0,0-2.626,4.313,29.331,29.331,0,0,0-.822,7.076,28.586,28.586,0,0,0,.928,7.94,11.776,11.776,0,0,0,2.733,5,9.866,9.866,0,0,0,4.4,2.6,21.176,21.176,0,0,0,5.89.753,20.03,20.03,0,0,0,7.216-1.118,11.474,11.474,0,0,0,4.563-3.058,11.353,11.353,0,0,0,2.415-4.609,22.416,22.416,0,0,0,.716-5.817,36.773,36.773,0,0,0-.981-9.13,11.528,11.528,0,0,0-2.786-4.7,9.741,9.741,0,0,0-4.378-2.441A22.15,22.15,0,0,0,1495.831-115.9Z" fill="#9c6539"/>
    </g>
    <g id="Group_25" data-name="Group 25">
      <g id="Group_24" data-name="Group 24">
        <path id="Path_19" data-name="Path 19" d="M1461.141-142.775l-.231.018q-.105-1.008-.84-1.007h-1.5v1.58h.879q.429,0,.481-.747h.22l-.087,1.806h-.209c-.038-.513-.187-.77-.445-.77h-.839v1.794h1.3q1.036,0,1.175-1.371l.243.04-.139,1.65h-3.687v-.2c.344,0,.515-.088.515-.266v-3.363c0-.177-.171-.266-.515-.266v-.2h3.687Z" fill="#9c6539"/>
        <path id="Path_20" data-name="Path 20" d="M1464.2-141.623l-.214.041a1.058,1.058,0,0,0-.338-.715,1.159,1.159,0,0,0-.779-.246.908.908,0,0,0-.449.1.356.356,0,0,0-.188.336.363.363,0,0,0,.154.321,1.237,1.237,0,0,0,.387.171c.157.042.324.079.5.11a2.368,2.368,0,0,1,.5.142,1.01,1.01,0,0,1,.387.269.712.712,0,0,1,.154.486.762.762,0,0,1-.281.637,1.322,1.322,0,0,1-.825.22,2.059,2.059,0,0,1-.512-.061,1.037,1.037,0,0,1-.408-.206l-.09-.061a.168.168,0,0,0-.089-.031.069.069,0,0,0-.064.026.246.246,0,0,0-.029.089l-.041.209h-.208v-1.187l.208-.034a1.138,1.138,0,0,0,.136.419,1.179,1.179,0,0,0,.27.324,1.172,1.172,0,0,0,.37.209,1.341,1.341,0,0,0,.44.072.8.8,0,0,0,.524-.136.437.437,0,0,0,.159-.349.369.369,0,0,0-.09-.26.641.641,0,0,0-.237-.159,1.806,1.806,0,0,0-.336-.1c-.125-.025-.254-.052-.385-.081s-.259-.063-.385-.1a1.271,1.271,0,0,1-.336-.159.777.777,0,0,1-.237-.257.79.79,0,0,1-.089-.4.713.713,0,0,1,.272-.6,1.274,1.274,0,0,1,.8-.213,1.588,1.588,0,0,1,.449.069,1.153,1.153,0,0,1,.379.18.61.61,0,0,0,.1.069.187.187,0,0,0,.1.029c.038,0,.066-.029.081-.087l.029-.2h.214Z" fill="#9c6539"/>
        <path id="Path_21" data-name="Path 21" d="M1465.806-142.728h.787l-.028.335a2.943,2.943,0,0,0-.353-.049c-.124-.009-.259-.014-.406-.014v2.193q0,.261.29.261a.231.231,0,0,0,.2-.078.3.3,0,0,0,.057-.183v-.393h.22v.335a1.275,1.275,0,0,1-.02.232.406.406,0,0,1-.084.182.41.41,0,0,1-.179.122.9.9,0,0,1-.307.043.687.687,0,0,1-.524-.182.722.722,0,0,1-.171-.512v-2.02h-.515v-.2a1.726,1.726,0,0,0,.3-.046.5.5,0,0,0,.229-.124.6.6,0,0,0,.145-.241,1.291,1.291,0,0,0,.052-.4v-.127l.312-.04Z" fill="#9c6539"/>
        <path id="Path_22" data-name="Path 22" d="M1470.165-140.239q0,.26.439.26v.2h-.972v-.591a1.373,1.373,0,0,1-.188.229,1.453,1.453,0,0,1-.263.206,1.559,1.559,0,0,1-.336.15,1.365,1.365,0,0,1-.411.058,1,1,0,0,1-.677-.194.855.855,0,0,1-.22-.669v-1.678c0-.178-.17-.266-.51-.266v-.186h1.031v2.1a.865.865,0,0,0,.107.5.43.43,0,0,0,.367.142.879.879,0,0,0,.325-.064,1.158,1.158,0,0,0,.3-.176,1.756,1.756,0,0,0,.264-.261,1.767,1.767,0,0,0,.208-.315v-1.482c0-.178-.191-.266-.573-.266v-.186h1.106Z" fill="#9c6539"/>
        <path id="Path_23" data-name="Path 23" d="M1474.072-140.239c0,.174.171.26.515.26v.2h-.824l-.046-.481a1.175,1.175,0,0,1-1.174.579,1.754,1.754,0,0,1-.559-.09,1.279,1.279,0,0,1-.474-.28,1.4,1.4,0,0,1-.329-.489,1.851,1.851,0,0,1-.125-.715,1.759,1.759,0,0,1,.139-.738,1.36,1.36,0,0,1,.364-.492,1.416,1.416,0,0,1,.505-.272,1.955,1.955,0,0,1,.563-.084,1.713,1.713,0,0,1,.544.081.908.908,0,0,1,.375.22v-1.245q0-.26-.509-.26v-.185h1.035Zm-1.462-2.362a.971.971,0,0,0-.476.11.915.915,0,0,0-.319.292,1.323,1.323,0,0,0-.18.426,2.16,2.16,0,0,0-.058.509,2.161,2.161,0,0,0,.058.509,1.323,1.323,0,0,0,.18.426.915.915,0,0,0,.319.292.96.96,0,0,0,.476.11.911.911,0,0,0,.468-.11.912.912,0,0,0,.307-.292,1.227,1.227,0,0,0,.169-.426,2.608,2.608,0,0,0,.049-.509,2.608,2.608,0,0,0-.049-.509,1.227,1.227,0,0,0-.169-.426.912.912,0,0,0-.307-.292A.921.921,0,0,0,1472.61-142.6Z" fill="#9c6539"/>
        <path id="Path_24" data-name="Path 24" d="M1476.068-140.244a.2.2,0,0,0,.128.2.935.935,0,0,0,.388.063v.2h-1.546v-.2c.34,0,.509-.086.509-.26v-2.027c0-.177-.169-.265-.509-.265v-.186h1.03Zm.093-3.5a.4.4,0,0,1-.119.289.385.385,0,0,1-.286.122.4.4,0,0,1-.29-.122.394.394,0,0,1-.121-.289.386.386,0,0,1,.121-.287.4.4,0,0,1,.29-.118.389.389,0,0,1,.286.118A.392.392,0,0,1,1476.161-143.741Z" fill="#9c6539"/>
        <path id="Path_25" data-name="Path 25" d="M1478.627-142.844a2.066,2.066,0,0,1,.587.081,1.261,1.261,0,0,1,.484.266,1.278,1.278,0,0,1,.327.486,2.035,2.035,0,0,1,.118.741,1.93,1.93,0,0,1-.1.651,1.381,1.381,0,0,1-.3.5,1.326,1.326,0,0,1-.495.321,1.891,1.891,0,0,1-.677.113,2.089,2.089,0,0,1-.579-.078,1.255,1.255,0,0,1-.48-.258,1.23,1.23,0,0,1-.33-.468,1.845,1.845,0,0,1-.122-.712,2.173,2.173,0,0,1,.1-.675,1.434,1.434,0,0,1,.292-.521,1.261,1.261,0,0,1,.489-.332A1.881,1.881,0,0,1,1478.627-142.844Zm0,.243a1.106,1.106,0,0,0-.47.092.922.922,0,0,0-.329.255,1.1,1.1,0,0,0-.194.385,1.774,1.774,0,0,0-.064.483,2.9,2.9,0,0,0,.073.712,1.192,1.192,0,0,0,.2.449.7.7,0,0,0,.311.231,1.126,1.126,0,0,0,.4.067,1.112,1.112,0,0,0,.49-.1.847.847,0,0,0,.325-.275,1.161,1.161,0,0,0,.181-.417,2.358,2.358,0,0,0,.055-.518,2.5,2.5,0,0,0-.076-.669,1.132,1.132,0,0,0-.206-.419.675.675,0,0,0-.31-.217A1.2,1.2,0,0,0,1478.63-142.6Z" fill="#9c6539"/>
      </g>
      <path id="Path_26" data-name="Path 26" d="M1469.586-144.04l-.622.728a.065.065,0,0,1-.048.023h-.234a.064.064,0,0,1-.054-.1l.448-.728a.064.064,0,0,1,.054-.031h.407A.064.064,0,0,1,1469.586-144.04Z" fill="#9c6539"/>
    </g>
  </g>
</svg>
